<?xml version="1.0" encoding="UTF-8"?>
<svg version="1.1" xmlns="http://www.w3.org/2000/svg" width="308" height="298">
<path d="M0 0 C101.64 0 203.28 0 308 0 C308 98.34 308 196.68 308 298 C206.36 298 104.72 298 0 298 C0 199.66 0 101.32 0 0 Z " fill="#000000" transform="translate(0,0)"/>
<path d="M0 0 C101.64 0 203.28 0 308 0 C308 98.34 308 196.68 308 298 C206.36 298 104.72 298 0 298 C0 199.66 0 101.32 0 0 Z M22 17 C22 104.12 22 191.24 22 281 C109.12 281 196.24 281 286 281 C286 193.88 286 106.76 286 17 C198.88 17 111.76 17 22 17 Z " fill="#FFFFFF" transform="translate(0,0)"/>
<path d="M0 0 C2.97 0 5.94 0 9 0 C9 0.99 9 1.98 9 3 C10.98 3 12.96 3 15 3 C15 11.91 15 20.82 15 30 C16.65 30 18.3 30 20 30 C20 31.32 20 32.64 20 34 C33.86 34 47.72 34 62 34 C62 32.68 62 31.36 62 30 C62.99 30 63.98 30 65 30 C65 25.71 65 21.42 65 17 C68.3 17 71.6 17 75 17 C75 25.58 75 34.16 75 43 C58.83 43 42.66 43 26 43 C26 52.57 26 62.14 26 72 C24.02 72 22.04 72 20 72 C19.34 71.01 18.68 70.02 18 69 C16.68 69 15.36 69 14 69 C14 63.72 14 58.44 14 53 C13.34 53 12.68 53 12 53 C12 68.84 12 84.68 12 101 C12.66 101 13.32 101 14 101 C14 94.4 14 87.8 14 81 C15.65 80.67 17.3 80.34 19 80 C19.66 79.34 20.32 78.68 21 78 C22.65 78.33 24.3 78.66 26 79 C26 87.25 26 95.5 26 104 C42.17 104 58.34 104 75 104 C75 105.65 75 107.3 75 109 C74.34 109 73.68 109 73 109 C73 115.93 73 122.86 73 130 C71.35 130 69.7 130 68 130 C68 131.65 68 133.3 68 135 C62.39 135 56.78 135 51 135 C51 133.35 51 131.7 51 130 C49.35 130 47.7 130 46 130 C46 124.72 46 119.44 46 114 C45.01 114 44.02 114 43 114 C43 112.35 43 110.7 43 109 C42.01 109 41.02 109 40 109 C40 110.65 40 112.3 40 114 C39.01 114 38.02 114 37 114 C37 117.96 37 121.92 37 126 C35.35 126 33.7 126 32 126 C32 127.65 32 129.3 32 131 C26.06 131 20.12 131 14 131 C14 129.35 14 127.7 14 126 C12.68 126 11.36 126 10 126 C10 122.04 10 118.08 10 114 C9.01 114 8.02 114 7 114 C7 112.35 7 110.7 7 109 C6.01 109 5.02 109 4 109 C4 110.65 4 112.3 4 114 C3.01 114 2.02 114 1 114 C1 121.26 1 128.52 1 136 C-0.65 136 -2.3 136 -4 136 C-4 137.65 -4 139.3 -4 141 C-9.94 141 -15.88 141 -22 141 C-22 139.35 -22 137.7 -22 136 C-23.32 136 -24.64 136 -26 136 C-26 128.74 -26 121.48 -26 114 C-26.99 114 -27.98 114 -29 114 C-29 112.35 -29 110.7 -29 109 C-29.99 109 -30.98 109 -32 109 C-32 110.65 -32 112.3 -32 114 C-32.99 114 -33.98 114 -35 114 C-35 119.28 -35 124.56 -35 130 C-36.65 130 -38.3 130 -40 130 C-40 131.65 -40 133.3 -40 135 C-45.94 135 -51.88 135 -58 135 C-58 133.35 -58 131.7 -58 130 C-59.32 130 -60.64 130 -62 130 C-62 123.07 -62 116.14 -62 109 C-62.66 109 -63.32 109 -64 109 C-64 107.35 -64 105.7 -64 104 C-46.18 104 -28.36 104 -10 104 C-10 97.73 -10 91.46 -10 85 C-8.35 85 -6.7 85 -5 85 C-5.50603992 82.83125748 -5.99983813 81.00032373 -7 79 C-7.99 79 -8.98 79 -10 79 C-10 77.02 -10 75.04 -10 73 C-9.01 73 -8.02 73 -7 73 C-6.855625 72.401875 -6.71125 71.80375 -6.5625 71.1875 C-6.1127561 69.43849596 -5.57107659 67.71322977 -5 66 C-6.65 66 -8.3 66 -10 66 C-10 60.06 -10 54.12 -10 48 C-10.66 48 -11.32 48 -12 48 C-12 46.35 -12 44.7 -12 43 C-29.16 43 -46.32 43 -64 43 C-64 34.42 -64 25.84 -64 17 C-60.7 17 -57.4 17 -54 17 C-54 21.29 -54 25.58 -54 30 C-52.68 30 -51.36 30 -50 30 C-50 31.32 -50 32.64 -50 34 C-36.14 34 -22.28 34 -8 34 C-8 32.68 -8 31.36 -8 30 C-6.68 30 -5.36 30 -4 30 C-4 21.09 -4 12.18 -4 3 C-2.68 3 -1.36 3 0 3 C0 2.01 0 1.02 0 0 Z " fill="#1F1F1F" transform="translate(146,102)"/>
<path d="M0 0 C34.98 0 69.96 0 106 0 C106 4.62 106 9.24 106 14 C109.63 14 113.26 14 117 14 C117 18.29 117 22.58 117 27 C118.65 27 120.3 27 122 27 C122 35.91 122 44.82 122 54 C118.7 54 115.4 54 112 54 C112 48.72 112 43.44 112 38 C110.68 38 109.36 38 108 38 C108 36.35 108 34.7 108 33 C94.14 33 80.28 33 66 33 C66 34.65 66 36.3 66 38 C64.68 38 63.36 38 62 38 C62 41.3 62 44.6 62 48 C61.01 48 60.02 48 59 48 C59 47.34 59 46.68 59 46 C54.71 46 50.42 46 46 46 C46 46.66 46 47.32 46 48 C45.01 48 44.02 48 43 48 C43 44.7 43 41.4 43 38 C41.68 38 40.36 38 39 38 C39 36.35 39 34.7 39 33 C25.14 33 11.28 33 -3 33 C-3 34.65 -3 36.3 -3 38 C-4.32 38 -5.64 38 -7 38 C-7 43.28 -7 48.56 -7 54 C-10.3 54 -13.6 54 -17 54 C-17 45.09 -17 36.18 -17 27 C-15.35 27 -13.7 27 -12 27 C-12 22.71 -12 18.42 -12 14 C-8.04 14 -4.08 14 0 14 C0 9.38 0 4.76 0 0 Z " fill="#F8F8F8" transform="translate(99,51)"/>
<path d="M0 0 C17.16 0 34.32 0 52 0 C52 1.65 52 3.3 52 5 C52.66 5 53.32 5 54 5 C54 10.94 54 16.88 54 23 C55.65 23 57.3 23 59 23 C59 18.71 59 14.42 59 10 C59.33 10 59.66 10 60 10 C60.05407567 12.58361518 60.093707 15.16609255 60.125 17.75 C60.14175781 18.47960937 60.15851563 19.20921875 60.17578125 19.9609375 C60.21072239 23.8044624 60.17499684 26.74606772 58 30 C56.68 30 55.36 30 54 30 C54 31.98 54 33.96 54 36 C54.99 36 55.98 36 57 36 C57.66 35.34 58.32 34.68 59 34 C59.95376567 37.20782086 60.11621181 40.08187396 60.09765625 43.421875 C60.09443359 44.44667969 60.09121094 45.47148437 60.08789062 46.52734375 C60.07532227 48.12255859 60.07532227 48.12255859 60.0625 49.75 C60.05798828 50.82894531 60.05347656 51.90789062 60.04882812 53.01953125 C60.03705727 55.67974383 60.02061399 58.33984365 60 61 C59.67 61 59.34 61 59 61 C59 54.73 59 48.46 59 42 C57.35 42 55.7 42 54 42 C54 48.27 54 54.54 54 61 C36.18 61 18.36 61 0 61 C0 40.87 0 20.74 0 0 Z " fill="#3E3E3E" transform="translate(82,145)"/>
<path d="M0 0 C16.17 0 32.34 0 49 0 C49 20.13 49 40.26 49 61 C32.83 61 16.66 61 0 61 C0 52.75 0 44.5 0 36 C-1.65 36 -3.3 36 -5 36 C-5.515625 36.515625 -6.03125 37.03125 -6.5625 37.5625 C-7.036875 38.036875 -7.51125 38.51125 -8 39 C-9.32 38.67 -10.64 38.34 -12 38 C-12 44.6 -12 51.2 -12 58 C-12.66 58 -13.32 58 -14 58 C-14 42.16 -14 26.32 -14 10 C-13.34 10 -12.68 10 -12 10 C-12 15.28 -12 20.56 -12 26 C-10.68 25.67 -9.36 25.34 -8 25 C-7.34 26.32 -6.68 27.64 -6 29 C-4.02 29 -2.04 29 0 29 C0 19.43 0 9.86 0 0 Z " fill="#3F3F3F" transform="translate(172,145)"/>
<path d="M0 0 C45.87 0 91.74 0 139 0 C139 1.32 139 2.64 139 4 C138.34 4 137.68 4 137 4 C137 10.93 137 17.86 137 25 C135.35 25 133.7 25 132 25 C132 26.65 132 28.3 132 30 C126.39 30 120.78 30 115 30 C115 28.35 115 26.7 115 25 C113.35 25 111.7 25 110 25 C110 19.72 110 14.44 110 9 C109.01 9 108.02 9 107 9 C107 7.35 107 5.7 107 4 C106.01 4 105.02 4 104 4 C104 5.65 104 7.3 104 9 C103.01 9 102.02 9 101 9 C101 12.96 101 16.92 101 21 C99.35 21 97.7 21 96 21 C96 22.65 96 24.3 96 26 C90.06 26 84.12 26 78 26 C78 24.35 78 22.7 78 21 C76.68 21 75.36 21 74 21 C74 17.04 74 13.08 74 9 C73.01 9 72.02 9 71 9 C71 7.35 71 5.7 71 4 C70.01 4 69.02 4 68 4 C68 5.65 68 7.3 68 9 C67.01 9 66.02 9 65 9 C65 16.26 65 23.52 65 31 C63.35 31 61.7 31 60 31 C60 32.65 60 34.3 60 36 C54.06 36 48.12 36 42 36 C42 34.35 42 32.7 42 31 C40.68 31 39.36 31 38 31 C38 23.74 38 16.48 38 9 C37.01 9 36.02 9 35 9 C35 7.35 35 5.7 35 4 C34.01 4 33.02 4 32 4 C32 5.65 32 7.3 32 9 C31.01 9 30.02 9 29 9 C29 14.28 29 19.56 29 25 C27.35 25 25.7 25 24 25 C24 26.65 24 28.3 24 30 C18.06 30 12.12 30 6 30 C6 28.35 6 26.7 6 25 C4.68 25 3.36 25 2 25 C2 18.07 2 11.14 2 4 C1.34 4 0.68 4 0 4 C0 2.68 0 1.36 0 0 Z " fill="#F8F8F8" transform="translate(82,207)"/>
<path d="M0 0 C2.97 0 5.94 0 9 0 C9 0.99 9 1.98 9 3 C10.98 3 12.96 3 15 3 C15 11.91 15 20.82 15 30 C16.65 30 18.3 30 20 30 C20 31.32 20 32.64 20 34 C33.86 34 47.72 34 62 34 C62 32.68 62 31.36 62 30 C62.99 30 63.98 30 65 30 C65 25.71 65 21.42 65 17 C68.3 17 71.6 17 75 17 C75 25.25 75 33.5 75 42 C29.13 42 -16.74 42 -64 42 C-64 33.75 -64 25.5 -64 17 C-60.7 17 -57.4 17 -54 17 C-54 21.29 -54 25.58 -54 30 C-52.68 30 -51.36 30 -50 30 C-50 31.32 -50 32.64 -50 34 C-36.14 34 -22.28 34 -8 34 C-8 32.68 -8 31.36 -8 30 C-6.68 30 -5.36 30 -4 30 C-4 21.09 -4 12.18 -4 3 C-2.68 3 -1.36 3 0 3 C0 2.01 0 1.02 0 0 Z " fill="#F8F8F8" transform="translate(146,102)"/>
<path d="M0 0 C11.22 0 22.44 0 34 0 C34 11.88 34 23.76 34 36 C22.78 36 11.56 36 0 36 C0 24.12 0 12.24 0 0 Z " fill="#F8F8F8" transform="translate(169,92)"/>
<path d="M0 0 C11.22 0 22.44 0 34 0 C34 11.88 34 23.76 34 36 C22.78 36 11.56 36 0 36 C0 24.12 0 12.24 0 0 Z " fill="#F8F8F8" transform="translate(100,92)"/>
<path d="M0 0 C10.56 0 21.12 0 32 0 C32 1.32 32 2.64 32 4 C30.35 4 28.7 4 27 4 C27 5.65 27 7.3 27 9 C25.35 9 23.7 9 22 9 C22 25.5 22 42 22 59 C22.66 59 23.32 59 24 59 C24 59.66 24 60.32 24 61 C18.72 61 13.44 61 8 61 C8 60.34 8 59.68 8 59 C8.66 59 9.32 59 10 59 C10 42.5 10 26 10 9 C8.35 9 6.7 9 5 9 C5 7.35 5 5.7 5 4 C3.35 4 1.7 4 0 4 C0 2.68 0 1.36 0 0 Z " fill="#6D6B6B" transform="translate(135,145)"/>
<path d="M0 0 C2.31 0 4.62 0 7 0 C7 20.13 7 40.26 7 61 C4.69 61 2.38 61 0 61 C0 52.75 0 44.5 0 36 C-1.65 36 -3.3 36 -5 36 C-5.515625 36.515625 -6.03125 37.03125 -6.5625 37.5625 C-7.036875 38.036875 -7.51125 38.51125 -8 39 C-9.32 38.67 -10.64 38.34 -12 38 C-12 44.6 -12 51.2 -12 58 C-12.66 58 -13.32 58 -14 58 C-14 42.16 -14 26.32 -14 10 C-13.34 10 -12.68 10 -12 10 C-12 15.28 -12 20.56 -12 26 C-10.68 25.67 -9.36 25.34 -8 25 C-7.34 26.32 -6.68 27.64 -6 29 C-4.02 29 -2.04 29 0 29 C0 19.43 0 9.86 0 0 Z " fill="#3F3F3F" transform="translate(172,145)"/>
<path d="M0 0 C1.32 0 2.64 0 4 0 C4 1.65 4 3.3 4 5 C4.66 5 5.32 5 6 5 C6 10.94 6 16.88 6 23 C7.65 23 9.3 23 11 23 C11 18.71 11 14.42 11 10 C11.33 10 11.66 10 12 10 C12.05407567 12.58361518 12.093707 15.16609255 12.125 17.75 C12.14175781 18.47960937 12.15851563 19.20921875 12.17578125 19.9609375 C12.21072239 23.8044624 12.17499684 26.74606772 10 30 C8.68 30 7.36 30 6 30 C6 31.98 6 33.96 6 36 C6.99 36 7.98 36 9 36 C9.66 35.34 10.32 34.68 11 34 C11.95376567 37.20782086 12.11621181 40.08187396 12.09765625 43.421875 C12.09443359 44.44667969 12.09121094 45.47148437 12.08789062 46.52734375 C12.07951172 47.59082031 12.07113281 48.65429688 12.0625 49.75 C12.05798828 50.82894531 12.05347656 51.90789062 12.04882812 53.01953125 C12.03705727 55.67974383 12.02061399 58.33984365 12 61 C11.67 61 11.34 61 11 61 C11 54.73 11 48.46 11 42 C9.35 42 7.7 42 6 42 C6 48.27 6 54.54 6 61 C4.02 61 2.04 61 0 61 C0 40.87 0 20.74 0 0 Z " fill="#383838" transform="translate(130,145)"/>
<path d="M0 0 C1.98 0 3.96 0 6 0 C6 20.13 6 40.26 6 61 C4.02 61 2.04 61 0 61 C0 40.87 0 20.74 0 0 Z " fill="#383838" transform="translate(215,145)"/>
<path d="M0 0 C1.32 0 2.64 0 4 0 C4 9.57 4 19.14 4 29 C2.02 29 0.04 29 -2 29 C-2.66 28.01 -3.32 27.02 -4 26 C-5.32 26 -6.64 26 -8 26 C-8 20.72 -8 15.44 -8 10 C-7.01 10 -6.02 10 -5 10 C-5 8.35 -5 6.7 -5 5 C-3.35 5 -1.7 5 0 5 C0 3.35 0 1.7 0 0 Z " fill="#373737" transform="translate(168,145)"/>
<path d="M0 0 C0.33 0 0.66 0 1 0 C1 20.13 1 40.26 1 61 C0.67 61 0.34 61 0 61 C0 52.75 0 44.5 0 36 C-1.65 36 -3.3 36 -5 36 C-5.515625 36.515625 -6.03125 37.03125 -6.5625 37.5625 C-7.036875 38.036875 -7.51125 38.51125 -8 39 C-9.32 38.67 -10.64 38.34 -12 38 C-12 44.6 -12 51.2 -12 58 C-12.66 58 -13.32 58 -14 58 C-14 42.16 -14 26.32 -14 10 C-13.34 10 -12.68 10 -12 10 C-12 15.28 -12 20.56 -12 26 C-10.68 25.67 -9.36 25.34 -8 25 C-7.34 26.32 -6.68 27.64 -6 29 C-4.02 29 -2.04 29 0 29 C0 19.43 0 9.86 0 0 Z " fill="#545454" transform="translate(172,145)"/>
<path d="M0 0 C2.97 0.495 2.97 0.495 6 1 C6 9.25 6 17.5 6 26 C4.02 26 2.04 26 0 26 C0 23.69 0 21.38 0 19 C-1.65 19 -3.3 19 -5 19 C-5 21.31 -5 23.62 -5 26 C-5.33 26 -5.66 26 -6 26 C-6 18.41 -6 10.82 -6 3 C-4.35 2.67 -2.7 2.34 -1 2 C-0.67 1.34 -0.34 0.68 0 0 Z " fill="#383838" transform="translate(166,180)"/>
<path d="M0 0 C0.33 0 0.66 0 1 0 C1 5.94 1 11.88 1 18 C2.65 18 4.3 18 6 18 C6 13.71 6 9.42 6 5 C6.33 5 6.66 5 7 5 C7.05407567 7.58361518 7.093707 10.16609255 7.125 12.75 C7.14175781 13.47960937 7.15851563 14.20921875 7.17578125 14.9609375 C7.21072239 18.8044624 7.17499684 21.74606772 5 25 C3.68 25 2.36 25 1 25 C1 26.98 1 28.96 1 31 C1.99 31 2.98 31 4 31 C4.66 30.34 5.32 29.68 6 29 C6.95376567 32.20782086 7.11621181 35.08187396 7.09765625 38.421875 C7.09443359 39.44667969 7.09121094 40.47148437 7.08789062 41.52734375 C7.07951172 42.59082031 7.07113281 43.65429688 7.0625 44.75 C7.05798828 45.82894531 7.05347656 46.90789062 7.04882812 48.01953125 C7.03705727 50.67974383 7.02061399 53.33984365 7 56 C6.67 56 6.34 56 6 56 C6 49.73 6 43.46 6 37 C4.35 37 2.7 37 1 37 C1 43.27 1 49.54 1 56 C0.67 56 0.34 56 0 56 C0 37.52 0 19.04 0 0 Z " fill="#5D5D5D" transform="translate(135,150)"/>
<path d="M0 0 C0.66 0 1.32 0 2 0 C2 15.84 2 31.68 2 48 C1.34 48 0.68 48 0 48 C-0.33 41.4 -0.66 34.8 -1 28 C-1.66 28 -2.32 28 -3 28 C-3 27.34 -3 26.68 -3 26 C-3.99 26 -4.98 26 -6 26 C-6 24.02 -6 22.04 -6 20 C-5.01 20 -4.02 20 -3 20 C-2.67 18.68 -2.34 17.36 -2 16 C-1.67 16 -1.34 16 -1 16 C-0.67 10.72 -0.34 5.44 0 0 Z " fill="#373737" transform="translate(142,155)"/>
<path d="M0 0 C0 7.92 0 15.84 0 24 C-0.33 24 -0.66 24 -1 24 C-1 21.69 -1 19.38 -1 17 C-2.65 17 -4.3 17 -6 17 C-6 19.31 -6 21.62 -6 24 C-6.33 24 -6.66 24 -7 24 C-7 16.41 -7 8.82 -7 1 C-2 0 -2 0 0 0 Z " fill="#515151" transform="translate(167,182)"/>
<path d="M0 0 C1.65 0 3.3 0 5 0 C5 6.27 5 12.54 5 19 C3.35 19 1.7 19 0 19 C0 12.73 0 6.46 0 0 Z " fill="#383838" transform="translate(136,187)"/>
<path d="M0 0 C0.99 0 1.98 0 3 0 C3 1.65 3 3.3 3 5 C3.66 5 4.32 5 5 5 C5 9.29 5 13.58 5 18 C3.35 18 1.7 18 0 18 C0 12.06 0 6.12 0 0 Z " fill="#383838" transform="translate(136,150)"/>
<path d="M0 0 C1.32 0.66 2.64 1.32 4 2 C3.34 3.32 2.68 4.64 2 6 C0.68 5.67 -0.64 5.34 -2 5 C-2 11.6 -2 18.2 -2 25 C-2.66 25 -3.32 25 -4 25 C-4.11601004 21.39610336 -4.18718408 17.79268533 -4.25 14.1875 C-4.28351563 13.16333984 -4.31703125 12.13917969 -4.3515625 11.08398438 C-4.36445313 10.10107422 -4.37734375 9.11816406 -4.390625 8.10546875 C-4.41157227 7.19949951 -4.43251953 6.29353027 -4.45410156 5.36010742 C-4 3 -4 3 -1.97558594 1.1809082 C-0.9976709 0.59635864 -0.9976709 0.59635864 0 0 Z " fill="#363636" transform="translate(162,178)"/>
<path d="M0 0 C1.65 0 3.3 0 5 0 C5 4.95 5 9.9 5 15 C3.35 14.67 1.7 14.34 0 14 C0 9.38 0 4.76 0 0 Z " fill="#363636" transform="translate(161,157)"/>
<path d="M0 0 C0.66 0 1.32 0 2 0 C2 5.28 2 10.56 2 16 C3.32 15.67 4.64 15.34 6 15 C6.66 16.32 7.32 17.64 8 19 C6.25 20.125 6.25 20.125 4 21 C2.68 20.34 1.36 19.68 0 19 C0 12.73 0 6.46 0 0 Z " fill="#363636" transform="translate(158,155)"/>
<path d="M0 0 C1.32 0 2.64 0 4 0 C4 7.26 4 14.52 4 22 C3.67 22 3.34 22 3 22 C3 17.05 3 12.1 3 7 C1.35 7 -0.3 7 -2 7 C-2 11.62 -2 16.24 -2 21 C-2.33 21 -2.66 21 -3 21 C-3 15.72 -3 10.44 -3 5 C-2.01 5 -1.02 5 0 5 C0 3.35 0 1.7 0 0 Z " fill="#525252" transform="translate(163,150)"/>
<path d="M0 0 C0 3.63 0 7.26 0 11 C-1.65 11 -3.3 11 -5 11 C-5 7.7 -5 4.4 -5 1 C-1 0 -1 0 0 0 Z " fill="#363636" transform="translate(166,182)"/>
<path d="M0 0 C0.33 0 0.66 0 1 0 C1.05407567 2.58361518 1.093707 5.16609255 1.125 7.75 C1.14175781 8.47960937 1.15851563 9.20921875 1.17578125 9.9609375 C1.21072239 13.8044624 1.17499684 16.74606772 -1 20 C-2.32 20 -3.64 20 -5 20 C-5 17.69 -5 15.38 -5 13 C-3.35 13 -1.7 13 0 13 C0 8.71 0 4.42 0 0 Z " fill="#585858" transform="translate(141,155)"/>
<path d="M0 0 C1.423125 0.2784375 1.423125 0.2784375 2.875 0.5625 C5.89868793 1.28686632 5.89868793 1.28686632 8 0 C8 1.98 8 3.96 8 6 C7.4225 5.79375 6.845 5.5875 6.25 5.375 C3.48032433 4.91338739 2.35438733 5.57055055 0 7 C0 4.69 0 2.38 0 0 Z " fill="#3F3F3F" transform="translate(158,174)"/>
<path d="M0 0 C1.65 0 3.3 0 5 0 C5 2.31 5 4.62 5 7 C3.35 7 1.7 7 0 7 C0 4.69 0 2.38 0 0 Z " fill="#373737" transform="translate(161,199)"/>
<path d="M0 0 C2.83022097 3.99560608 1.76210446 7.42737323 1 12 C0.67 11.34 0.34 10.68 0 10 C-0.99 10 -1.98 10 -3 10 C-3 8.02 -3 6.04 -3 4 C-2.01 4 -1.02 4 0 4 C0 2.68 0 1.36 0 0 Z " fill="#303030" transform="translate(139,171)"/>
<path d="M0 0 C2.97 0.495 2.97 0.495 6 1 C6 2.65 6 4.3 6 6 C4.35 6 2.7 6 1 6 C0.67 4.02 0.34 2.04 0 0 Z " fill="#333333" transform="translate(166,180)"/>
<path d="M0 0 C1.32 0.66 2.64 1.32 4 2 C3.34 3.32 2.68 4.64 2 6 C0.68 5.34 -0.64 4.68 -2 4 C-1.34 2.68 -0.68 1.36 0 0 Z " fill="#FFFFFF" transform="translate(162,178)"/>
<path d="M0 0 C1.32 0.66 2.64 1.32 4 2 C3.34 3.32 2.68 4.64 2 6 C0.68 5.34 -0.64 4.68 -2 4 C-1.34 2.68 -0.68 1.36 0 0 Z " fill="#FFFFFF" transform="translate(162,170)"/>
<path d="M0 0 C0 1.98 0 3.96 0 6 C-1.65 5.67 -3.3 5.34 -5 5 C-4.6875 3.0625 -4.6875 3.0625 -4 1 C-1 0 -1 0 0 0 Z " fill="#282828" transform="translate(166,174)"/>
</svg>
